<svg xmlns="http://www.w3.org/2000/svg" width="600" height="228" viewBox="0 0 600 228">
  <metadata><?xpacket begin="﻿" id="W5M0MpCehiHzreSzNTczkc9d"?>
<x:xmpmeta xmlns:x="adobe:ns:meta/" x:xmptk="Adobe XMP Core 5.6-c142 79.160924, 2017/07/13-01:06:39        ">
   <rdf:RDF xmlns:rdf="http://www.w3.org/1999/02/22-rdf-syntax-ns#">
      <rdf:Description rdf:about=""/>
   </rdf:RDF>
</x:xmpmeta>
                                                                                                    
                                                                                                    
                                                                                                    
                                                                                                    
                                                                                                    
                                                                                                    
                                                                                                    
                                                                                                    
                                                                                                    
                                                                                                    
                                                                                                    
                                                                                                    
                                                                                                    
                                                                                                    
                                                                                                    
                                                                                                    
                                                                                                    
                                                                                                    
                                                                                                    
                                                                                                    
                           
<?xpacket end="w"?></metadata>
<defs>
    <style>
      .cls-1 {
        fill-rule: evenodd;
      }
    </style>
  </defs>
  <path id="Smart_Food" data-name="Smart Food" class="cls-1" d="M184.121,94.56a12.094,12.094,0,0,1-.691-2.97,14.139,14.139,0,0,0-3.011-2.808,40.054,40.054,0,0,0-3.581-2.2q-1.874-1.017-3.744-1.994a18.686,18.686,0,0,1-3.418-2.279,35.593,35.593,0,0,1-7.405-2.564q-3.5-1.667-7.162-3.052a0.5,0.5,0,0,1-.569.326,2.07,2.07,0,0,1-.733-0.122,4.775,4.775,0,0,0-.732-0.2,5.866,5.866,0,0,0-2.035-1.424,25.754,25.754,0,0,0-2.523-.936l-2.6-.814a7.465,7.465,0,0,1-2.278-1.139,6.992,6.992,0,0,1-1.709-.366,4.315,4.315,0,0,0-1.791-.2q-2.685-1.627-5.411-3.337t-5.249-3.662a41.355,41.355,0,0,1-4.721-4.272,26.8,26.8,0,0,1-3.824-5.168,14.272,14.272,0,0,0-.367-2.319,9.843,9.843,0,0,1-.284-2.319,4.491,4.491,0,0,1,.04-0.57,5.254,5.254,0,0,0,.041-0.651,3.125,3.125,0,0,0,.976-1.18,12.977,12.977,0,0,0,.57-1.424q0.244-.732.448-1.506a4.047,4.047,0,0,1,.61-1.343,2.808,2.808,0,0,1,1.18-.936,3.071,3.071,0,0,0,1.18-.854,2.793,2.793,0,0,0,.692-1.3,1.41,1.41,0,0,1,1.1-.977,9.909,9.909,0,0,0,2.523-1.3,16.654,16.654,0,0,0,2.116-1.953,13.147,13.147,0,0,0,2.767-1.384l2.523-1.709q1.3-.894,2.685-1.668a10.235,10.235,0,0,1,3.093-1.1,2.465,2.465,0,0,1,1.3-.9,2.461,2.461,0,0,0,1.3-.9,11.781,11.781,0,0,0,2.564-.448q1.26-.366,2.563-0.732t2.563-.651a11.624,11.624,0,0,1,2.564-.285h0.732a2.014,2.014,0,0,1,.733.163,2.669,2.669,0,0,0,1.383,1.343,4.823,4.823,0,0,0,2.035.448,5.529,5.529,0,0,0,1.953-.366,3.716,3.716,0,0,0,1.627-1.18,21.38,21.38,0,0,0,3.5.041q1.79-.122,3.418-0.122a19.466,19.466,0,0,1,2.482.163,5.808,5.808,0,0,1,2.319.814,1.116,1.116,0,0,1,1.3-1.221l0.407,0.081V26.16a7.706,7.706,0,0,0-.081-1.058,1.351,1.351,0,0,0-.488-0.9,9.4,9.4,0,0,0,1.79-.977,3,3,0,0,0,1.139-1.709,1.64,1.64,0,0,1-.325-1.058V20.138a10.864,10.864,0,0,1-1.506-.732,1.849,1.849,0,0,1-.854-1.384q-2.361-.406-4.761-0.9a24.243,24.243,0,0,0-4.842-.488,4.132,4.132,0,0,0-1.139.163,4.112,4.112,0,0,1-1.14.163,0.434,0.434,0,0,1-.488-0.326,0.5,0.5,0,0,0-.57-0.326h-0.163a1.055,1.055,0,0,1-.813.488,7.015,7.015,0,0,1-.977.081,10.389,10.389,0,0,1-1.3-.081,3.548,3.548,0,0,0-1.3.081,12.358,12.358,0,0,0-3.052.855,7.668,7.668,0,0,1-3.052.61h-0.569q-1.3.57-2.6,1.017a8.2,8.2,0,0,1-2.686.448h-0.57a1.235,1.235,0,0,1-.651.732,4.559,4.559,0,0,1-1.017.366q-0.53.122-1.058,0.285a1.555,1.555,0,0,0-.854.651,1.611,1.611,0,0,0-1.343.2,1.944,1.944,0,0,1-1.261.366h-0.489a2.641,2.641,0,0,1-1.22,1.221q-3.663,1.791-7.162,3.459a29.205,29.205,0,0,0-6.592,4.354,2.074,2.074,0,0,0-1.058.407,9.307,9.307,0,0,0-.773.692,9.234,9.234,0,0,1-.773.692,1.778,1.778,0,0,1-1.139.326,2.354,2.354,0,0,1-.448,1.139,2.338,2.338,0,0,0-.447,1.139,13.791,13.791,0,0,0-6.8,6.307,19.552,19.552,0,0,0-2.156,9.074,24.05,24.05,0,0,0,1.139,7.161,4.714,4.714,0,0,1,.895,1.017,2.5,2.5,0,0,1,.407,1.424,2.533,2.533,0,0,1-.163.732,26.232,26.232,0,0,1,3.011,3.011,12.882,12.882,0,0,1,2.2,3.743,17.685,17.685,0,0,1,2.278,1.1,2.551,2.551,0,0,1,1.221,2.075,4.524,4.524,0,0,1,.895-0.163,2.25,2.25,0,0,1,1.75.773,12.32,12.32,0,0,0,1.505,1.424,10.231,10.231,0,0,1,2.361.9q1.056,0.57,2.075,1.18a16.515,16.515,0,0,0,2.2,1.1,8.016,8.016,0,0,0,2.645.57,0.963,0.963,0,0,0,.57.854,1.1,1.1,0,0,1,.651.692h0.325a0.636,0.636,0,0,0,.57-0.244A0.79,0.79,0,0,1,139,78.244a2.036,2.036,0,0,0,.936.855q0.611,0.286,1.3.529a7.822,7.822,0,0,1,1.261.57,2.388,2.388,0,0,1,.9.9,8.729,8.729,0,0,1,2.522.366q1.221,0.366,2.36.814t2.32,0.9a8.391,8.391,0,0,0,2.482.529,8.531,8.531,0,0,0,3.947,2.238q2.319,0.61,4.516,1.017a2.153,2.153,0,0,0,1.058,1.261q0.733,0.366,1.546.692t1.547,0.692a2.2,2.2,0,0,1,1.058,1.1,9.041,9.041,0,0,1,4.516,2.035,28.8,28.8,0,0,1,3.378,3.581,1.8,1.8,0,0,0,.04.366,1.905,1.905,0,0,1,.041.366,2.157,2.157,0,0,1-.529,1.587,2.607,2.607,0,0,0-.692,1.424q-3.827,2.2-7.243,3.825a23.128,23.128,0,0,1-7.894,2.035,7.673,7.673,0,0,1-2.156,1.058,26.347,26.347,0,0,1-2.6.691,23.087,23.087,0,0,1-2.645.407q-1.3.123-2.36,0.122t-2.075-.081a5.7,5.7,0,0,1-1.913-.488c0-.38-0.028-0.883-0.081-1.506a8.528,8.528,0,0,0-.366-1.831,4.7,4.7,0,0,0-.814-1.546,1.657,1.657,0,0,0-1.343-.651,3.862,3.862,0,0,0-1.5.325,3.877,3.877,0,0,1-1.506.326h-0.244a8.737,8.737,0,0,0-1.709,2.4,6.517,6.517,0,0,0-.651,2.889,8.1,8.1,0,0,0,.976,3.865,9.567,9.567,0,0,0,2.523,3.052q2.442,0.244,4.883.57a37.081,37.081,0,0,0,4.883.325,19.816,19.816,0,0,0,2.6-.163q1.221-.163,2.6-0.488h0.57a5.661,5.661,0,0,1,1.953.326,1.452,1.452,0,0,1,.732-0.489,6.344,6.344,0,0,1,.977-0.244c0.325-.054.651-0.122,0.976-0.2a1.724,1.724,0,0,0,.814-0.448h0.57a12.267,12.267,0,0,0,5.168-1.139q2.481-1.141,4.842-2.2a10.2,10.2,0,0,1,1.465-.529,7.82,7.82,0,0,0,1.383-.529,8.319,8.319,0,0,0,2.075-1.506,11.467,11.467,0,0,1,2.4-1.75,3.787,3.787,0,0,1,.814-1.993q0.65-.776,1.343-1.465a18.876,18.876,0,0,0,1.342-1.506,4.043,4.043,0,0,0,.814-2.034,0.85,0.85,0,0,0,.814-0.2,1.649,1.649,0,0,1,.651-0.448,6.861,6.861,0,0,0,.081-1.221A8.69,8.69,0,0,0,184.121,94.56Zm79.844-5.046a10.446,10.446,0,0,0-2.116-.2q-1.221,0-2.36.081t-2.279.081a14.416,14.416,0,0,1-1.1-2.157,6.291,6.291,0,0,1-.448-2.4,3.819,3.819,0,0,1,.407-1.872,10.291,10.291,0,0,1-.326-1.79q-0.081-.895-0.081-1.79a19.576,19.576,0,0,1,.61-4.842q0.611-2.4,1.018-4.761a16.937,16.937,0,0,0,.406-3.581,4.151,4.151,0,0,0,.082-0.814V64.653a1.6,1.6,0,0,1,.529-0.855,1.333,1.333,0,0,0,.447-0.936V57.085q0-2.277-.162-4.557a33.923,33.923,0,0,0-.611-4.435,19.223,19.223,0,0,0-1.342-4.11q-1.466-.65-3.134-1.424a7.8,7.8,0,0,0-3.3-.773,4,4,0,0,0-2.93,1.221,5.514,5.514,0,0,1-.244,2.808,16.313,16.313,0,0,1-.773,1.709,17.876,17.876,0,0,0-.814,1.79A6.766,6.766,0,0,0,245,51.225a2.123,2.123,0,0,0-.936.529,3.262,3.262,0,0,1-.854.61v1.79q-2.605,4.232-5.209,8.5a39.769,39.769,0,0,1-6.184,7.772,34.433,34.433,0,0,0-5.575,2.767,25.6,25.6,0,0,1-5.737,2.6l-1.384-.407a3.279,3.279,0,0,0-1.3-.244,1.731,1.731,0,0,0-.732-1.18,5.782,5.782,0,0,0-1.3-.61q-1.3-1.871-2.4-3.784a37.053,37.053,0,0,1-1.994-4.028,6.736,6.736,0,0,0-.122-2.034,7.263,7.263,0,0,0-.529-1.465q-0.325-.65-0.651-1.18a2.9,2.9,0,0,1-.407-1.18,12.18,12.18,0,0,1-.122-2.279,12.359,12.359,0,0,0-.122-2.279,43.3,43.3,0,0,0-.936-4.964q-0.61-2.441-1.424-4.8a3.106,3.106,0,0,1-1.139-.041A5.369,5.369,0,0,1,205.005,45q-0.449-.2-0.855-0.407a7.078,7.078,0,0,0-.9-0.366,11.236,11.236,0,0,1-3.581.57,9.393,9.393,0,0,1-3.418-.57A4.36,4.36,0,0,0,194.1,46.79a10.825,10.825,0,0,0-.529,3.3,5.409,5.409,0,0,0,.081,1.139,9.452,9.452,0,0,0-.814,3.5,8.566,8.566,0,0,1-.895,3.5c-0.054.488-.109,1.031-0.162,1.628s-0.137,1.208-.245,1.831a7.94,7.94,0,0,1-.488,1.709,3,3,0,0,1-.976,1.261,6.051,6.051,0,0,1,.244,1.546,9.855,9.855,0,0,1-.448,2.97q-0.449,1.425-.854,2.808c0.053,0.435.094,0.9,0.122,1.383s0.04,0.977.04,1.465a27.372,27.372,0,0,1-.447,5,26.765,26.765,0,0,0-.448,4.924V86.3a0.434,0.434,0,0,0-.61.285,2.064,2.064,0,0,0-.2.855,49.5,49.5,0,0,0,.611,7.65,52.94,52.94,0,0,0,1.749,7.569,4.491,4.491,0,0,1,1.058-.163,1.571,1.571,0,0,1,.814.244l0.814,0.488a2.87,2.87,0,0,1,.488.041,2.988,2.988,0,0,0,.489.041,6.422,6.422,0,0,0,2.034-.326,6.391,6.391,0,0,1,2.035-.325h0.406a2.436,2.436,0,0,1,.326-1.628,5.515,5.515,0,0,1,.936-1.017q0.528-.447,1.139-0.9a2.345,2.345,0,0,0,.855-1.18,5.229,5.229,0,0,0-1.628-1.872q-0.814-.488-1.506-0.977a3.507,3.507,0,0,1-1.139-1.506,9.1,9.1,0,0,1-.447-3.377q0-1.139.081-2.36t0.081-2.36c0-.326-0.014-0.651-0.04-0.977s-0.041-.623-0.041-0.9a0.478,0.478,0,0,1,.2-0.448,2.841,2.841,0,0,1,.407-0.2,1.082,1.082,0,0,0,.367-0.244,0.664,0.664,0,0,0,.162-0.488,3.568,3.568,0,0,1-.488-1.872,4.321,4.321,0,0,1,1.3-3.174,20.276,20.276,0,0,1-.244-3.174,25.76,25.76,0,0,1,.2-3.011,6.039,6.039,0,0,1,1.018-2.848,6.2,6.2,0,0,1-.244-1.79,11.651,11.651,0,0,1,.366-2.726,5.518,5.518,0,0,1,1.261-2.482,4.3,4.3,0,0,0-.081.977,3.935,3.935,0,0,0,.407,1.79,3.792,3.792,0,0,1,.407,1.709,2.191,2.191,0,0,1-.407,1.3,7.348,7.348,0,0,1,2.4,3.5,38.461,38.461,0,0,1,1.1,4.069q1.3,1.709,2.482,3.377a13.3,13.3,0,0,1,1.831,3.784,5.958,5.958,0,0,1,1.546.61q0.813,0.448,1.587.936t1.424,0.9a2.167,2.167,0,0,0,1.058.407h1.791q1.139,0,2.319-.081t2.279-.163a6.454,6.454,0,0,0,1.749-.326,4.334,4.334,0,0,0,1.465-.651,13.022,13.022,0,0,1,1.384-.814q1.464-.813,2.889-1.506a15.723,15.723,0,0,1,3.051-1.1,10.171,10.171,0,0,1,2.889-3.093,14.086,14.086,0,0,1,3.785-1.872,0.745,0.745,0,0,1,.081-0.814,0.632,0.632,0,0,0,.244-0.57V73.361a8.593,8.593,0,0,0,3.133-2.523q1.262-1.627,2.4-3.337a28.38,28.38,0,0,0,1.668-2.97,7.307,7.307,0,0,1,2.157-2.645,1.9,1.9,0,0,0,.244-0.488q0.162-.406.366-0.854a5.721,5.721,0,0,1,.448-0.814,0.663,0.663,0,0,1,.407-0.366v1.79a28.233,28.233,0,0,1-.407,4.8q-0.408,2.361-.936,4.679t-0.936,4.679a28.14,28.14,0,0,0-.407,4.8,10.3,10.3,0,0,0-.814,4.15,16.91,16.91,0,0,0,1.18,6.144q1.179,3.052,2.564,5.819a5.41,5.41,0,0,1,2.279.732,9.52,9.52,0,0,0,2.115.977q2.36-1.139,4.8-2.116a16.4,16.4,0,0,1,5.127-1.139,0.788,0.788,0,0,1,.04-0.773,1.465,1.465,0,0,1,.529-0.326,6.089,6.089,0,0,1,.651-0.2,1.02,1.02,0,0,0,.57-0.407,6.084,6.084,0,0,1,.244-2.6A6.431,6.431,0,0,0,263.965,89.515Zm66.509,3.743a7.7,7.7,0,0,0-1.058-1.505,1.791,1.791,0,0,1-1.058.244,3.882,3.882,0,0,1-1.831-.448A3.9,3.9,0,0,0,324.7,91.1a2.7,2.7,0,0,0-1.709.651,24.539,24.539,0,0,1-2.32-1.75,6.783,6.783,0,0,1-1.749-2.319,10.637,10.637,0,0,1,3.662-.651,4.391,4.391,0,0,1,.976.081,1.647,1.647,0,0,1-.325-0.9,1.693,1.693,0,0,1,.651-1.3,1.948,1.948,0,0,0,.651-1.546,2.628,2.628,0,0,0-.326-1.139,3.08,3.08,0,0,0-.976-0.163h-0.814q-0.732,0-1.75.041a13.3,13.3,0,0,1-2.075-.081,7.884,7.884,0,0,1-1.912-.448,2.259,2.259,0,0,1-1.262-1.139,19.263,19.263,0,0,1-1.668-5.086q-0.529-2.808-1.18-5.249-0.245-.977-0.529-1.953a14.2,14.2,0,0,0-.692-1.872l-0.569-1.3a4.583,4.583,0,0,1-.326-2.482,10.151,10.151,0,0,0,0-2.564,10.875,10.875,0,0,0-.895-2.848,10.763,10.763,0,0,1-.9-2.93,35.713,35.713,0,0,0-1.18-5.086q-0.774-2.481-1.424-5.086a17.475,17.475,0,0,1-.529-3.133,4.4,4.4,0,0,0-1.18-2.726,25.6,25.6,0,0,1-3.418-.448,7.7,7.7,0,0,1-3.011-1.668,2.838,2.838,0,0,0-1.465,1.343,2.831,2.831,0,0,1-1.465,1.343,0.237,0.237,0,0,1-.081.163,0.5,0.5,0,0,0,.325.529,0.506,0.506,0,0,1,.326.529v0.244a9.331,9.331,0,0,0-1.75,2.97q-0.611,1.669-1.1,3.337t-1.1,3.215a7.3,7.3,0,0,1-1.831,2.686q-0.165.814-.285,1.831a1.188,1.188,0,0,1-1.262,1.1,18.68,18.68,0,0,1-1.017,3.988,30.569,30.569,0,0,1-1.587,3.459q-0.9,1.669-1.79,3.3a27.342,27.342,0,0,0-1.628,3.581q-0.57-.162-0.691.2a0.506,0.506,0,0,1-.529.366,3.849,3.849,0,0,1-.285,1.546,1.459,1.459,0,0,1-1.18.814,12.469,12.469,0,0,1-3.174,5.859v1.709a21.326,21.326,0,0,0-3.093,3.5q-1.385,1.953-2.726,3.865a31.3,31.3,0,0,1-2.97,3.622,13.026,13.026,0,0,1-3.825,2.767,0.945,0.945,0,0,0,.407,1.017,1.079,1.079,0,0,1,.488,1.017,2.822,2.822,0,0,0-1.383,1.017,5.078,5.078,0,0,0-.733,1.546,12.371,12.371,0,0,0-.366,1.791,13.63,13.63,0,0,0-.122,1.75,3.291,3.291,0,0,0,3.255,2.522,6.123,6.123,0,0,0,2.442-.569,9.461,9.461,0,0,0,2.2-1.3,1.927,1.927,0,0,1,.244-1.547,4.2,4.2,0,0,0,1.506-1.139q0.609-.732,1.18-1.546T274,96.88a4.616,4.616,0,0,1,1.465-1.221,2.148,2.148,0,0,1,.651-1.709,2.541,2.541,0,0,0,.814-1.546,1.006,1.006,0,0,0,.773-0.122,1.528,1.528,0,0,0,.447-0.488c0.108-.189.216-0.407,0.326-0.651a1.038,1.038,0,0,1,.488-0.529,1.707,1.707,0,0,0,.9-0.244,13.016,13.016,0,0,0,3.174.407q1.139,0,2.238-.081t2.238-.081h0.732c0.379,0,.556-0.135.529-0.407s0.122-.407.448-0.407a2.618,2.618,0,0,0,1.139.326,2.527,2.527,0,0,0,1.465-.448,7.532,7.532,0,0,1,1.465-.773,3.831,3.831,0,0,0,1.058.163h1.139a20.638,20.638,0,0,0,4.069-.407q2.034-.406,3.907-0.977a4.05,4.05,0,0,1,.895.61,5.25,5.25,0,0,0,.813.61,2.054,2.054,0,0,1,2.035-1.221h0.651a10.441,10.441,0,0,1,1.709,2.279q0.732,1.3,1.383,2.6t1.343,2.482a7.487,7.487,0,0,0,1.669,1.994,1.2,1.2,0,0,0,1.1.488,1.172,1.172,0,0,1,.936.081,1.513,1.513,0,0,1,.61.407c0.135,0.163.271,0.313,0.407,0.448a2.233,2.233,0,0,0,.489.366,1.974,1.974,0,0,0,.935.163,6.666,6.666,0,0,0,1.018-.081,7.312,7.312,0,0,1,1.1-.081,4.216,4.216,0,0,1,.814.081,4.733,4.733,0,0,1,.814.244,0.576,0.576,0,0,0,.407-0.57,0.36,0.36,0,0,1,.407-0.407,7.113,7.113,0,0,1,.773.041,6.787,6.787,0,0,0,.773.041,18.24,18.24,0,0,0,1.994-.122,8.607,8.607,0,0,0,2.156-.529,5.875,5.875,0,0,0,1.831-1.1,3.308,3.308,0,0,0,1.018-1.831A5.831,5.831,0,0,1,330.474,93.258Zm-24.821-10.9a1.269,1.269,0,0,1-.489.692,1.531,1.531,0,0,1-1.22-.285,2.488,2.488,0,0,0-1.14-.529q-0.9.244-1.831,0.407a11.049,11.049,0,0,1-1.912.163,10.5,10.5,0,0,1-3.5-.57,4.279,4.279,0,0,1-2.076.692,11.782,11.782,0,0,0-2.319.448,2.852,2.852,0,0,0-1.465-.814,8.74,8.74,0,0,0-1.709-.163q-0.9,0-1.831-.041a3.7,3.7,0,0,1-1.668-.448,7.419,7.419,0,0,1,.366-2.279,3.571,3.571,0,0,1,1.424-1.872,25.961,25.961,0,0,1,1.953-4.842q1.221-2.319,2.564-4.6t2.563-4.6a21.99,21.99,0,0,0,1.872-4.924,2.838,2.838,0,0,0,1.18-1.343,2.438,2.438,0,0,1,1.18-1.261,4.378,4.378,0,0,0-.122-1.058,4.37,4.37,0,0,1-.122-1.058,2.516,2.516,0,0,1,.244-1.139A3.849,3.849,0,0,1,299.02,54.6a13.241,13.241,0,0,1,.733,2.2q0.284,1.181.61,2.36a4.842,4.842,0,0,0,1.058,1.994V61.4a1.65,1.65,0,0,1-.326.9,40.172,40.172,0,0,1,1.75,5.371q0.69,2.767,1.262,5.534a24.957,24.957,0,0,1,.366,2.523,13.4,13.4,0,0,0,.447,2.441,6,6,0,0,0,.611,1.505,5.321,5.321,0,0,1,.529,1.994A1.4,1.4,0,0,0,305.653,82.353Zm125.7,3.133q-0.693-.244-1.5-0.448t-1.547-.407a2,2,0,0,1-1.139-.773,47.178,47.178,0,0,1-9.277,1.18q-4.64.122-9.359,0.529-1.221.164-2.482,0.244a11.456,11.456,0,0,0-2.4.407,5.343,5.343,0,0,0-.936.244,2.482,2.482,0,0,1-.854.163A1.336,1.336,0,0,1,401,86.219a1.078,1.078,0,0,0-.854-0.326H399.9a3.59,3.59,0,0,1-1.465.651,12.967,12.967,0,0,0-1.546.407q-3.095.082-6.185,0.448t-6.226.773q-3.134.408-6.226,0.732a39.123,39.123,0,0,1-6.184.163l-1.3-.081a0.33,0.33,0,0,0-.407-0.325h-0.733a1.2,1.2,0,0,0-.285-1.18,2.347,2.347,0,0,0-1.017-.61,2.092,2.092,0,0,1-.081-0.651,4.669,4.669,0,0,1,.366-1.383,7.282,7.282,0,0,0,.448-1.465q5.614-4.394,10.9-9.115t10.58-9.522q0.813-1.627,1.709-3.3t1.668-3.418a35.121,35.121,0,0,0,1.343-3.54,14.089,14.089,0,0,0,.651-3.662V49.435a28.513,28.513,0,0,0-4.72-5.127,4.155,4.155,0,0,1-2.157-.2c-0.569-.244-1.208-0.529-1.912-0.855a23.915,23.915,0,0,1-3.7-.122q-1.832-.2-3.7-0.285a19.242,19.242,0,0,0-5.289.407,21.564,21.564,0,0,1-5.29.488,14.218,14.218,0,0,0-3.215.2q-1.587.286-3.173,0.61t-3.174.61a14.067,14.067,0,0,1-3.215.2,15.357,15.357,0,0,1-2.36,1.1,5.873,5.873,0,0,1-2.441.366,4.858,4.858,0,0,1-.692-0.041,3.037,3.037,0,0,1-.692-0.2,3.237,3.237,0,0,1-1.79,1.221,7.981,7.981,0,0,1-2.2.326,9.863,9.863,0,0,1-2.035-.366,13.818,13.818,0,0,1-1.872-.692,7.714,7.714,0,0,0-2.238,1.383q-1.018.9-1.993,1.75a13.876,13.876,0,0,1-2.076,1.506,4.42,4.42,0,0,1-2.563.57h-0.732a9.121,9.121,0,0,1-1.954,1.221l-2.115.977a11.336,11.336,0,0,0-1.994,1.18,5.249,5.249,0,0,0-1.506,1.75v1.3a5.437,5.437,0,0,0-.04,1.139,2.793,2.793,0,0,0,.284,1.058,1.659,1.659,0,0,1,1.221.285,8.861,8.861,0,0,1,.936.814q0.445,0.448.976,0.9a2.984,2.984,0,0,0,1.425.61,3.349,3.349,0,0,0,.895-0.448q0.569-.366,1.18-0.732t1.058-.692a1.451,1.451,0,0,1,.61-0.325,1.925,1.925,0,0,1,.366.041,1.811,1.811,0,0,0,.367.041,0.764,0.764,0,0,0,.488-0.2c0.163-.135.352-0.311,0.569-0.529a3.375,3.375,0,0,1,.774-0.57,1.922,1.922,0,0,1,.935-0.244L337.89,60.1a8.455,8.455,0,0,1,.244,1.18,9.762,9.762,0,0,1,.081,1.261,18.734,18.734,0,0,1-.325,2.441,18.894,18.894,0,0,0-.326,2.6,3.259,3.259,0,0,0,.245,1.872,3.319,3.319,0,0,0-.611,1.1,6.507,6.507,0,0,0-.285,1.261A8.1,8.1,0,0,0,337.2,74.5a8.134,8.134,0,0,1,.285,2.686,13.846,13.846,0,0,1-.285,1.79,8.042,8.042,0,0,0-.2,1.79,9.806,9.806,0,0,0,.2,3.215,11.7,11.7,0,0,1,.285,3.215,4.4,4.4,0,0,1-.326,1.79,13.693,13.693,0,0,1,1.75,4.72q0.528,2.768,1.1,5.046a9.935,9.935,0,0,1,1.79,1.75q0.813,1.017,1.709,1.994a10.253,10.253,0,0,0,1.953,1.668,4.911,4.911,0,0,0,2.442.773,7.424,7.424,0,0,0,1.79-.244,8.079,8.079,0,0,1,.895-3.011,7.128,7.128,0,0,0,.814-3.011,0.686,0.686,0,0,0,0-.651,0.816,0.816,0,0,1-.326-0.366,2.536,2.536,0,0,0-.244-0.448c0.054-.216-0.054-0.326-0.325-0.326h-0.651a0.712,0.712,0,0,1-.326-0.081,0.16,0.16,0,0,1-.081-0.244,17.872,17.872,0,0,1-1.831-3.784,39.477,39.477,0,0,1-1.18-4.11q-0.489-2.115-.814-4.273t-0.732-4.11A23.027,23.027,0,0,0,345.7,75.4q0.081-2.115,0-4.15t0-4.15a17.421,17.421,0,0,1,.977-5.127q0.162-.406.285-0.732a4.7,4.7,0,0,0,.2-0.732,0.234,0.234,0,0,0,.082-0.163,0.233,0.233,0,0,1,.081-0.163,2.263,2.263,0,0,0-.2-0.936,2.213,2.213,0,0,1-.2-0.936,1.246,1.246,0,0,1,.163-0.488q2.2-1.057,4.476-2.157a10.34,10.34,0,0,1,4.883-1.017,2.254,2.254,0,0,1,.61.081,2.189,2.189,0,0,0,.61.081,11.762,11.762,0,0,1,3.54-1.343,28.22,28.22,0,0,1,3.7-.488q1.872-.122,3.784-0.285a16.868,16.868,0,0,0,3.7-.732,25.629,25.629,0,0,0,3.54.081q1.749-.08,3.377,0a30.8,30.8,0,0,1,3.622.529,7.18,7.18,0,0,1,3.133,1.506,13.313,13.313,0,0,1-2.767,5.859,18.851,18.851,0,0,1-4.964,4.313,2.5,2.5,0,0,1-.57,1.1,6.366,6.366,0,0,1-.9.814c-0.325.244-.638,0.488-0.936,0.732a2.419,2.419,0,0,0-.692.936,18.943,18.943,0,0,0-2.889,1.872q-1.342,1.059-2.685,2.156t-2.686,2.157a15.1,15.1,0,0,1-2.889,1.79,39.579,39.579,0,0,1-5.859,6.185q-0.326,1.873-.651,3.662t-0.57,3.662a2.219,2.219,0,0,1,1.14,1.465,5.334,5.334,0,0,0,.813,1.79,6.583,6.583,0,0,0,2.36,2.075,20.626,20.626,0,0,0,3.337,1.465,24.736,24.736,0,0,0,3.581.936,26.428,26.428,0,0,0,3.174.407,26.908,26.908,0,0,0,4.191-.163,12.449,12.449,0,0,0,3.947-1.139,1.4,1.4,0,0,0,1.261.61,3.945,3.945,0,0,1,1.587.366,4.712,4.712,0,0,1,1.709-.9,13.655,13.655,0,0,1,1.831-.366q0.935-.122,1.872-0.326a5.742,5.742,0,0,0,1.749-.692,3.39,3.39,0,0,0,1.465-.163,4.852,4.852,0,0,1,1.546-.244,0.869,0.869,0,0,1,.57.2,5.694,5.694,0,0,0,.488.366,28.214,28.214,0,0,1,5.249-1.505q2.808-.528,5.738-0.9t5.859-.61q2.93-.244,5.534-0.651a5.178,5.178,0,0,1,1.424-.122,5.859,5.859,0,0,0,1.506-.122,26.263,26.263,0,0,0,4.6-1.058,13.777,13.777,0,0,1,4.76-.651,7.113,7.113,0,0,1,.773.041c0.245,0.028.5,0.069,0.774,0.122a10.552,10.552,0,0,0,1.586-1.221,3.027,3.027,0,0,0,.855-1.872A1.469,1.469,0,0,0,431.355,85.486ZM487.778,48.3c-0.325,0-.692.014-1.1,0.041a1.146,1.146,0,0,1-.936-0.285,5.681,5.681,0,0,0-.773-2.563,2.5,2.5,0,0,0-2.157-1.261l-0.57.9a3.377,3.377,0,0,1-1.505.61q-1.018.2-2.2,0.325t-2.238.2a8.745,8.745,0,0,0-1.628.244,0.816,0.816,0,0,0-.773.692,0.531,0.531,0,0,1-.611.529,2.878,2.878,0,0,1-.488-0.041,3.556,3.556,0,0,0-.569-0.041,7.58,7.58,0,0,0-2.686.488,7.592,7.592,0,0,1-2.686.488,3.953,3.953,0,0,1-1.627-.325,1.007,1.007,0,0,1-.285.855,1.96,1.96,0,0,1-.854.285q-1.629.244-3.215,0.366t-3.215.285q-3.417.408-6.632,0.977t-6.47,1.058a11.214,11.214,0,0,0-1.3-.244,10.666,10.666,0,0,0-1.3-.081,22.826,22.826,0,0,0-4.923.529,22.394,22.394,0,0,1-4.843.529c-0.38,0-.746-0.013-1.1-0.041s-0.72-.067-1.1-0.122a20.671,20.671,0,0,1-3.947,1.058q-1.995.326-4.028,0.57t-3.988.651a19.751,19.751,0,0,0-3.825,1.221,1.952,1.952,0,0,1-.773,1.546,1.6,1.6,0,0,0-.691,1.383,1.486,1.486,0,0,0,.488.936,1.908,1.908,0,0,1,.488,1.343,2.588,2.588,0,0,1-.163.651q0.976,0.652,1.669,1.18a3.228,3.228,0,0,0,1.994.529q0.324,0,1.342-.081t2.116-.2c0.733-.081,1.4-0.175,1.994-0.285a3.634,3.634,0,0,0,1.139-.325,0.6,0.6,0,0,0,.367-0.366c0.026-.135.2-0.2,0.529-0.2a4.154,4.154,0,0,1,1.139.163,4.385,4.385,0,0,0,1.221.163,2.578,2.578,0,0,0,1.424-.529,3.308,3.308,0,0,1,1.912-.529,4.5,4.5,0,0,1,.977.163,1.1,1.1,0,0,0,.366.651c0.189,0.163.366,0.326,0.529,0.488,0.053,0.6.122,1.208,0.2,1.831a3.383,3.383,0,0,0,.692,1.668q0.079,2.361.2,4.6t0.122,4.517q0,1.141-.082,2.319t-0.244,2.319a11.041,11.041,0,0,1,.732,4.395,16.826,16.826,0,0,0,.407,4.395,7.632,7.632,0,0,0,.773,1.912q0.53,0.937,1.058,1.831t1.018,1.831a6.44,6.44,0,0,1,.651,1.994,0.815,0.815,0,0,1,.854.244c0.135,0.217.285,0.462,0.448,0.732a2.775,2.775,0,0,0,.732.773,2.954,2.954,0,0,0,1.709.366,3.214,3.214,0,0,0,1.791-.529q0.812-.528,1.627-1.139a16.255,16.255,0,0,1,1.75-1.139,4.309,4.309,0,0,1,2.156-.529,4.834,4.834,0,0,1,1.18-2.279,10.4,10.4,0,0,0,1.506-2.034q-0.083-.895-0.122-1.668T451.4,87.6c0-.325.013-0.651,0.041-0.977a7.776,7.776,0,0,1,.122-0.9,4.075,4.075,0,0,0-1.1-.651,3.366,3.366,0,0,0-1.261-.244,5.591,5.591,0,0,0-2.2.448,12.155,12.155,0,0,1-2.2.692,1.435,1.435,0,0,0,.163-0.651,1.741,1.741,0,0,0-.651-1.424,1.735,1.735,0,0,1-.651-1.424,15.518,15.518,0,0,1,.122-1.994,14.653,14.653,0,0,0,.122-1.912,16.384,16.384,0,0,0-.814-5.208,6.011,6.011,0,0,0,.407-2.441,19.1,19.1,0,0,0-.2-2.767,18.928,18.928,0,0,1-.2-2.767,5.682,5.682,0,0,1,.326-1.953,2.2,2.2,0,0,1-1.017-1.1,2.846,2.846,0,0,1-.2-1.424,0.554,0.554,0,0,0,.244-0.041,0.572,0.572,0,0,1,.245-0.041,5.822,5.822,0,0,1,1.017.081,4.535,4.535,0,0,1,.854.244,11.548,11.548,0,0,1,4.11-1.424,27.529,27.529,0,0,1,4.272-.366q0.9,0,1.791.081a16.437,16.437,0,0,1,1.709.244,9.57,9.57,0,0,1,4.069-1.261q2.277-.2,4.232-0.285a5.422,5.422,0,0,1,1.139-.041,2.677,2.677,0,0,0,1.058-.122q0.977-.244,1.872-0.529a14.526,14.526,0,0,1,1.79-.447q1.953-.324,3.906-0.529a38.43,38.43,0,0,0,3.906-.61,1.265,1.265,0,0,1,.733.61,5.867,5.867,0,0,1,.407.936,5.581,5.581,0,0,0,1.831-1.017,2.919,2.919,0,0,1,1.994-.61,2.618,2.618,0,0,1,.407.041,2.437,2.437,0,0,0,.406.041,3.747,3.747,0,0,1,.285-2.157,9,9,0,0,1,1.1-1.75l1.383-1.709a5.7,5.7,0,0,0,1.058-1.953h-0.244ZM258.761,151.429a3.614,3.614,0,0,0-.773-1.343,29.038,29.038,0,0,0-4.6,1.017,15.729,15.729,0,0,1-4.679.692c-0.38,0-.746-0.013-1.1-0.041s-0.691-.067-1.017-0.122a3.99,3.99,0,0,1-1.831.895,5.308,5.308,0,0,0-1.912.814,5.71,5.71,0,0,0-1.954-.325,13.752,13.752,0,0,0-4.516.773,13.977,13.977,0,0,1-4.6.773,14.4,14.4,0,0,1-4.639,1.587q-2.606.449-4.883,1.017a21.377,21.377,0,0,0-3.092,1.221h-0.326a0.66,0.66,0,0,1-.488-0.163,0.667,0.667,0,0,0-.488-0.163h-0.163a1.022,1.022,0,0,1-.814.936,4.271,4.271,0,0,0-1.22.529,2.046,2.046,0,0,0-.9-0.163,5.193,5.193,0,0,0-1.383.2,5.163,5.163,0,0,1-1.384.2,3.272,3.272,0,0,1-1.3-.244,21.836,21.836,0,0,1-4.923,2.075q-2.484.693-5.249,1.18l-2.93.489a0.478,0.478,0,0,0-.407.569c0.054,0.272-.109.407-0.488,0.407a1.289,1.289,0,0,1-.57-0.163,1.316,1.316,0,0,0-.569-0.162,3.926,3.926,0,0,0-2.279.732,4.324,4.324,0,0,1-2.523.732H190.28a0.5,0.5,0,0,0-.57-0.325,2.924,2.924,0,0,1-.325-1.465,5.128,5.128,0,0,1,.244-1.628,5.113,5.113,0,0,0,.244-1.627,2.713,2.713,0,0,0-.407-1.465,20.072,20.072,0,0,0,1.139-6.673c0-.542-0.028-1.085-0.081-1.628s-0.136-1.084-.244-1.627a2.3,2.3,0,0,0,.57-0.9,6.264,6.264,0,0,0,.244-1.017q0.079-.528.163-1.1a2.083,2.083,0,0,1,.488-1.058,16.021,16.021,0,0,1,.2-4.354,6.4,6.4,0,0,1,1.058-2.482,4.062,4.062,0,0,1,1.668-1.3c0.652-.271,1.315-0.542,1.994-0.814a16.288,16.288,0,0,0,2.075-1.017A6.992,6.992,0,0,0,200.778,133q4.15-1.139,8.3-2.685t8.3-2.889q4.149-1.344,8.382-2.279a39.873,39.873,0,0,1,8.626-.936h0.244a0.908,0.908,0,0,1,.773.163,2.427,2.427,0,0,0,.692.407,3.024,3.024,0,0,1,2.523-1.14,11.813,11.813,0,0,1,2.4.245,17.493,17.493,0,0,0,2.4.325,2.084,2.084,0,0,0,.9.855,1.189,1.189,0,0,1,.57,1.18v0.325a2.233,2.233,0,0,1,1.139.122,6.256,6.256,0,0,1,.936.488q0.447,0.286.895,0.529a2.263,2.263,0,0,0,1.1.245,1.079,1.079,0,0,0,.692-0.326q0.366-.324.773-0.732a5.945,5.945,0,0,1,.9-0.733,2.165,2.165,0,0,1,1.221-.325,2.913,2.913,0,0,1,.814.081,6.981,6.981,0,0,1-.407-2.2,9.424,9.424,0,0,1,.081-1.262,9.741,9.741,0,0,0,.081-1.261,6.988,6.988,0,0,0-.651-2.848q-0.651-.569-1.627-1.262a17.815,17.815,0,0,0-2.075-1.261,19.739,19.739,0,0,0-2.2-.977,12.064,12.064,0,0,0-1.993-.569,6.858,6.858,0,0,0-1.669-.122c-0.569.028-1.153,0.04-1.749,0.04a69.2,69.2,0,0,0-12.492,1.14,38.939,38.939,0,0,0-11.841,4.231,26.33,26.33,0,0,0-4.761.611,17.365,17.365,0,0,0-4.516,1.668,1.111,1.111,0,0,0-.814-0.326,3.074,3.074,0,0,0-.895.123,2.844,2.844,0,0,1-.814.122,1.188,1.188,0,0,1-.733-0.245,1.241,1.241,0,0,1-.732.9,5.894,5.894,0,0,1-1.221.366,9.7,9.7,0,0,0-1.261.325,1.354,1.354,0,0,0-.855.774,4.615,4.615,0,0,0-1.668.122c-0.462.136-.895,0.284-1.3,0.447s-0.842.34-1.3,0.529a5.392,5.392,0,0,1-1.587.366,8.676,8.676,0,0,0-2.564-2.482,6.206,6.206,0,0,0-3.458-1.1,4.217,4.217,0,0,0-1.668.244,2.024,2.024,0,0,0-.855.732,3.056,3.056,0,0,0-.448,1.14,14.119,14.119,0,0,1-.366,1.464,6.655,6.655,0,0,1-.407,1.18,2.8,2.8,0,0,0-.244,1.18,5.151,5.151,0,0,0,.407,1.791,7.292,7.292,0,0,1-.651,1.3,2.562,2.562,0,0,0-.407,1.383,2.882,2.882,0,0,0,.041.489c0.027,0.162.067,0.353,0.122,0.569a3.243,3.243,0,0,0-2.6,3.418,7.514,7.514,0,0,0,.569,2.808,8.919,8.919,0,0,0,1.465,2.482,8.57,8.57,0,0,0-.447,1.912,16.613,16.613,0,0,0-.122,1.994,13.447,13.447,0,0,0,.081,1.424,10.027,10.027,0,0,0,.244,1.424,8.218,8.218,0,0,0-1.017,2.767q-0.287,1.548-.529,3.093t-0.57,2.93a5.022,5.022,0,0,1-1.139,2.278,4.559,4.559,0,0,0-.163,1.058,1.723,1.723,0,0,0,.529,1.262,3.313,3.313,0,0,1,.773,1.18,3.873,3.873,0,0,0-.854,2.278,15.051,15.051,0,0,1-.285,2.442,28.578,28.578,0,0,1-3.866,1.668q-1.995.692-4.028,1.18a5.741,5.741,0,0,0-.977,3.255,5.923,5.923,0,0,0,.489,2.36,6.422,6.422,0,0,0,1.383,2.035q0.407,0.081.733,0.122a5.764,5.764,0,0,0,.732.04,12.924,12.924,0,0,0,2.279-.2,13.457,13.457,0,0,1,2.36-.2h0.325a2.4,2.4,0,0,0,.407.692,5.086,5.086,0,0,1,.488.692,27.364,27.364,0,0,0,.082,4.72,45.787,45.787,0,0,1,.244,4.72q0,0.9-.081,1.831t-0.245,1.913a36.2,36.2,0,0,1,1.384,5.289,36.6,36.6,0,0,1,.57,5.453,29.167,29.167,0,0,1,1.18,2.929,9.75,9.75,0,0,1,.529,3.174,5.994,5.994,0,0,1-.041.733q-0.042.324-.122,0.732a5.938,5.938,0,0,1,1.261,1.628q0.528,0.977,1.1,1.912a6.393,6.393,0,0,0,1.343,1.587,2.988,2.988,0,0,0,1.993.651,7.049,7.049,0,0,0,1.3-.163,16.394,16.394,0,0,1,1.058-2.075q0.568-.936,1.058-1.872a11.8,11.8,0,0,0,.814-1.993,8.356,8.356,0,0,0,.326-2.442V207.54a3.79,3.79,0,0,0-.082-0.732,4.936,4.936,0,0,0-.976-1.139,2.705,2.705,0,0,1-.814-1.221q0.079-.489.122-0.936c0.027-.3.041-0.61,0.041-0.936a15.062,15.062,0,0,0-.448-3.662q-0.449-1.789-.936-3.581t-0.936-3.662a17.113,17.113,0,0,1-.447-3.987,0.584,0.584,0,0,1,.325-0.57,0.584,0.584,0,0,0,.326-0.57v-0.162a8.387,8.387,0,0,1-1.262-3.581,28.392,28.392,0,0,1-.284-3.744,19.242,19.242,0,0,1,.325-3.743,41.454,41.454,0,0,0,5.33-1.343q2.644-.855,5.25-1.709t5.289-1.587a31.021,31.021,0,0,1,5.453-.976,2.243,2.243,0,0,0,.569-0.936,0.721,0.721,0,0,1,.9-0.448,1.963,1.963,0,0,0,1.139.244h0.57a9.774,9.774,0,0,1,5.615-1.953,5.293,5.293,0,0,1,.651.041c0.216,0.028.46,0.068,0.732,0.122l1.3-.814a4.588,4.588,0,0,1,1.3-.57,23.984,23.984,0,0,1,2.564-.651q1.26-.243,2.563-0.488,2.6-.65,5.209-1.343t5.208-1.342a1.28,1.28,0,0,0,1.221.569q0.487,0,.488-0.244a0.74,0.74,0,0,0-.081-0.325,0.716,0.716,0,0,1-.082-0.326,0.193,0.193,0,0,1,.163-0.2,1.336,1.336,0,0,1,.326-0.041q2.115-.489,4.272-0.814t4.354-.488q1.139-.081,2.563-0.041a13.789,13.789,0,0,0,2.482-.122,6.208,6.208,0,0,0,1.343-.732,4.721,4.721,0,0,1,1.913-.733,13.4,13.4,0,0,0,1.1-2.523,8.707,8.707,0,0,0,.448-2.685A5.044,5.044,0,0,0,258.761,151.429Zm42.764-.326a13.762,13.762,0,0,0-1.343-1.872q-0.732-.853-1.424-1.749a8.713,8.713,0,0,1-1.18-2.116,8.847,8.847,0,0,1-3.5-2.6,6.142,6.142,0,0,1-.61.122,4.888,4.888,0,0,1-.692.04,7.9,7.9,0,0,1-2.848-.528,7.907,7.907,0,0,0-2.848-.529,4.657,4.657,0,0,0-.895.081,7.71,7.71,0,0,0-.9.244q-1.385.327-2.563,0.61a9.8,9.8,0,0,0-2.482,1.018,33.151,33.151,0,0,0-4.476,2.6,15.718,15.718,0,0,1-4.72,2.2,3.631,3.631,0,0,1-.895,1.139,2.7,2.7,0,0,0-.814,1.221,22.043,22.043,0,0,0-5.493,4.069,30.379,30.379,0,0,1-5.331,4.313,1.482,1.482,0,0,1-.081.855,0.8,0.8,0,0,1-.814.366,0.469,0.469,0,0,1-.325-0.081,1.28,1.28,0,0,1-.041.976,1.508,1.508,0,0,0-.2.814,51.971,51.971,0,0,0-5.493,6.632,31.45,31.45,0,0,0-3.865,7.691,5.8,5.8,0,0,1-.326,2.4,10.942,10.942,0,0,0-.57,2.238q1.142,3.825,2.2,6.876a24.556,24.556,0,0,0,3.418,6.307q1.138,0.57,2.6,1.18a5.166,5.166,0,0,1,2.279,1.75q1.464,0.245,2.889.447a20.329,20.329,0,0,0,2.889.2,12.906,12.906,0,0,0,2.278-.2,7.252,7.252,0,0,0,2.2-.773,1.449,1.449,0,0,0,1.058.326h0.977a15.079,15.079,0,0,1,3.011-.977,30.877,30.877,0,0,1,3.092-.488,15.7,15.7,0,0,1,4.4-2.848q2.442-1.058,4.964-1.872a24.739,24.739,0,0,1,2.726-2.36,12.991,12.991,0,0,1,3.134-1.709q1.788-2.442,3.662-4.761a20.058,20.058,0,0,0,3.011-5.167,7.731,7.731,0,0,1,.081-1.994,8.051,8.051,0,0,1,.488-1.628q0.325-.772.692-1.587t0.773-1.79v-0.163a16.889,16.889,0,0,1,1.14-6.022,5.1,5.1,0,0,1,.488-1.139,5.185,5.185,0,0,0,.488-1.14V160.5q0-.9-0.041-1.831c-0.028-.624-0.04-1.262-0.04-1.913,0-.488.026-1.03,0.081-1.627a3.443,3.443,0,0,1,.57-1.628A5.994,5.994,0,0,0,301.525,151.1Zm-8.016,8.586a8.473,8.473,0,0,1,.122.9c0.026,0.326.04,0.624,0.04,0.9a14.134,14.134,0,0,1-.447,3.581,28.3,28.3,0,0,1-1.1,3.336q-0.653,1.629-1.3,3.3a24.232,24.232,0,0,0-1.058,3.459,20.207,20.207,0,0,0-1.709,1.953,24.962,24.962,0,0,0-1.465,2.116,7.5,7.5,0,0,0-.61.9,4.392,4.392,0,0,1-.692.895,5.163,5.163,0,0,1-1.058.936q-0.651.448-1.139,0.855a40.633,40.633,0,0,1-6.877,4.028,31.977,31.977,0,0,1-7.527,2.4,11.046,11.046,0,0,0-3.54-.407,8.2,8.2,0,0,1-3.459-.57,3.963,3.963,0,0,1-2.319-1.871,11.661,11.661,0,0,0-1.75-2.442,4.078,4.078,0,0,1-.081-0.814v-0.813a13.679,13.679,0,0,1,.773-4.924,20.558,20.558,0,0,1,1.872-3.7q1.1-1.709,2.36-3.377a21.659,21.659,0,0,0,2.319-3.947,20.884,20.884,0,0,0,2.156-1.953q1.017-1.057,2.076-2.075t2.156-1.953a11.911,11.911,0,0,1,2.4-1.587,4.611,4.611,0,0,1,1.546-1.262,3.139,3.139,0,0,0,1.384-1.343h1.464a6.045,6.045,0,0,1,1.587-1.383,13.3,13.3,0,0,1,1.954-.977q1.016-.405,1.993-0.854a5.821,5.821,0,0,0,1.709-1.18,1.875,1.875,0,0,1,1.018,1.017q0.283,0.693.529,1.343a1.709,1.709,0,0,0,.773.448,6.043,6.043,0,0,1,.9.325,5.853,5.853,0,0,1,.814.448,1.105,1.105,0,0,1,.447.813,2.881,2.881,0,0,1,1.14-.244,3.3,3.3,0,0,1,1.627.407,7.666,7.666,0,0,0,1.546.651,3.049,3.049,0,0,1,.082.733,3.258,3.258,0,0,1-.651,1.953h0Zm64.52-8.586a13.762,13.762,0,0,0-1.343-1.872q-0.732-.853-1.424-1.749a8.713,8.713,0,0,1-1.18-2.116,8.847,8.847,0,0,1-3.5-2.6,6.142,6.142,0,0,1-.61.122,4.888,4.888,0,0,1-.692.04,7.9,7.9,0,0,1-2.848-.528,7.907,7.907,0,0,0-2.848-.529,4.676,4.676,0,0,0-.9.081,7.752,7.752,0,0,0-.895.244q-1.385.327-2.563,0.61a9.8,9.8,0,0,0-2.482,1.018,33.089,33.089,0,0,0-4.476,2.6,15.718,15.718,0,0,1-4.72,2.2,3.646,3.646,0,0,1-.9,1.139,2.689,2.689,0,0,0-.814,1.221,22.043,22.043,0,0,0-5.493,4.069,30.379,30.379,0,0,1-5.331,4.313,1.482,1.482,0,0,1-.081.855,0.8,0.8,0,0,1-.814.366,0.474,0.474,0,0,1-.326-0.081,1.276,1.276,0,0,1-.04.976,1.508,1.508,0,0,0-.2.814,51.971,51.971,0,0,0-5.493,6.632,31.45,31.45,0,0,0-3.865,7.691,5.8,5.8,0,0,1-.326,2.4,10.942,10.942,0,0,0-.57,2.238q1.141,3.825,2.2,6.876a24.525,24.525,0,0,0,3.418,6.307q1.139,0.57,2.6,1.18a5.163,5.163,0,0,1,2.278,1.75q1.465,0.245,2.889.447a20.35,20.35,0,0,0,2.889.2,12.909,12.909,0,0,0,2.279-.2,7.252,7.252,0,0,0,2.2-.773,1.449,1.449,0,0,0,1.058.326h0.977a15.058,15.058,0,0,1,3.011-.977,30.877,30.877,0,0,1,3.092-.488,15.69,15.69,0,0,1,4.395-2.848q2.44-1.058,4.964-1.872a24.647,24.647,0,0,1,2.726-2.36,13,13,0,0,1,3.133-1.709q1.789-2.442,3.663-4.761a20.058,20.058,0,0,0,3.011-5.167,7.731,7.731,0,0,1,.081-1.994,8.051,8.051,0,0,1,.488-1.628c0.216-.515.448-1.044,0.692-1.587s0.5-1.139.773-1.79v-0.163A16.91,16.91,0,0,1,357.255,164a5.149,5.149,0,0,1,.489-1.139,5.185,5.185,0,0,0,.488-1.14V160.5q0-.9-0.041-1.831c-0.028-.624-0.04-1.262-0.04-1.913,0-.488.026-1.03,0.081-1.627a3.432,3.432,0,0,1,.57-1.628A6.01,6.01,0,0,0,358.029,151.1Zm-8.016,8.586a8.473,8.473,0,0,1,.122.9c0.026,0.326.04,0.624,0.04,0.9a14.134,14.134,0,0,1-.447,3.581,28.3,28.3,0,0,1-1.1,3.336q-0.653,1.629-1.3,3.3a24.232,24.232,0,0,0-1.058,3.459,20.207,20.207,0,0,0-1.709,1.953,24.962,24.962,0,0,0-1.465,2.116,7.387,7.387,0,0,0-.61.9,4.392,4.392,0,0,1-.692.895,5.163,5.163,0,0,1-1.058.936q-0.653.448-1.139,0.855a40.633,40.633,0,0,1-6.877,4.028,31.977,31.977,0,0,1-7.527,2.4,11.046,11.046,0,0,0-3.54-.407,8.2,8.2,0,0,1-3.459-.57,3.963,3.963,0,0,1-2.319-1.871,11.661,11.661,0,0,0-1.75-2.442,4.078,4.078,0,0,1-.081-0.814v-0.813a13.658,13.658,0,0,1,.773-4.924,20.62,20.62,0,0,1,1.871-3.7q1.1-1.709,2.36-3.377a21.6,21.6,0,0,0,2.32-3.947,20.884,20.884,0,0,0,2.156-1.953q1.017-1.057,2.076-2.075t2.156-1.953a11.911,11.911,0,0,1,2.4-1.587,4.592,4.592,0,0,1,1.546-1.262,3.144,3.144,0,0,0,1.384-1.343h1.464a6.045,6.045,0,0,1,1.587-1.383,13.285,13.285,0,0,1,1.953-.977q1.017-.405,1.994-0.854a5.821,5.821,0,0,0,1.709-1.18,1.87,1.87,0,0,1,1.017,1.017q0.285,0.693.529,1.343a1.718,1.718,0,0,0,.774.448,6.043,6.043,0,0,1,.895.325,5.911,5.911,0,0,1,.814.448,1.108,1.108,0,0,1,.447.813,2.88,2.88,0,0,1,1.139-.244,3.3,3.3,0,0,1,1.628.407,7.666,7.666,0,0,0,1.546.651,3.049,3.049,0,0,1,.082.733,3.258,3.258,0,0,1-.651,1.953h0Zm70.286-1.424q-0.487-1.179-1.139-2.4t-1.343-2.4a15.3,15.3,0,0,1-1.1-2.238q-1.059-.894-1.913-1.668a4.56,4.56,0,0,1-1.261-2.075,17.284,17.284,0,0,1-3.093-1.872q-1.385-1.056-2.766-2.2l-6.674-1.791a26.308,26.308,0,0,0-6.836-.9h-1.383a0.215,0.215,0,0,0-.244-0.244,5.185,5.185,0,0,0-.855.122q-0.611.123-1.342,0.285l-1.384.244a8.519,8.519,0,0,1-.976.082q-3.095.408-6.023,0.61a33.728,33.728,0,0,0-5.859.936,2.8,2.8,0,0,0-1.058-.285c-0.38-.027-0.732-0.041-1.058-0.041h-1.383a3.243,3.243,0,0,0-.611,1.18,1.369,1.369,0,0,1-.773.936,11.753,11.753,0,0,1-1.424.407q-1.018.245-1.668,0.407-1.953.652-3.866,1.465a20.421,20.421,0,0,1-3.865,1.22l-0.814,2.116a6.08,6.08,0,0,0-.407,2.2,5.23,5.23,0,0,0,.57,2.36,10.074,10.074,0,0,0,1.993.447,4.548,4.548,0,0,1,1.913.692,16.676,16.676,0,0,1,3.5-1.424q1.872-.528,3.744-0.936a20.458,20.458,0,0,1,.773,3.825,37.849,37.849,0,0,1,.2,3.906,61.188,61.188,0,0,1-.61,8.667,61.188,61.188,0,0,0-.61,8.667,40.439,40.439,0,0,0,.244,4.476,5.438,5.438,0,0,0-.244.732,3,3,0,0,0-.082.733,3.314,3.314,0,0,0,.163,1.058,3.083,3.083,0,0,1,.163.976,0.4,0.4,0,0,1-.489.407,0.362,0.362,0,0,0-.406.488,1.546,1.546,0,0,1,1.139.407,3.106,3.106,0,0,1,.651.977,4.485,4.485,0,0,1,.325,1.221,5.818,5.818,0,0,0,.245,1.139q0.894,0.9,1.79,1.668a3.567,3.567,0,0,1,1.139,2.157,5.131,5.131,0,0,1,3.093,1.383,14.371,14.371,0,0,1,2.116,2.767,2.529,2.529,0,0,1,.935-0.122,2.065,2.065,0,0,1,.692.2q0.324,0.163.611,0.325a1.362,1.362,0,0,0,.691.163,22.594,22.594,0,0,1,2.523-1.3,7,7,0,0,1,2.767-.488,7.632,7.632,0,0,1,2.157-1.628q1.26-.651,2.4-1.139,0.162-.081.977-0.367a4.432,4.432,0,0,0,.9-0.366l1.79-1.709a23.312,23.312,0,0,1,1.913-1.709q1.017-.811,1.994-1.627,3.5-2.849,6.551-5.453a46.028,46.028,0,0,0,5.493-5.534,36.221,36.221,0,0,0,4.272-6.429,31.39,31.39,0,0,0,2.808-8.219v-0.326a0.667,0.667,0,0,0-.163-0.488,0.549,0.549,0,0,1-.163-0.407,0.954,0.954,0,0,1,.57-0.976,1.026,1.026,0,0,0,.57-1.058A5.855,5.855,0,0,0,420.3,158.265Zm-7.771,5.411a4.371,4.371,0,0,0-.448,2.116v0.326q-1.059,1.464-2.034,3.052t-2.076,3.051a28.6,28.6,0,0,1-2.36,2.767,12.128,12.128,0,0,1-2.889,2.2,1.89,1.89,0,0,1-.895,1.342,1.9,1.9,0,0,0-.9,1.343,1.077,1.077,0,0,0-1.017.488,1.423,1.423,0,0,1-.936.651,4.237,4.237,0,0,1-.651.814l-0.814.733a3.516,3.516,0,0,0-.692.732,1.529,1.529,0,0,0-.285.9l0.082,0.326c-0.163-.054-0.34-0.108-0.529-0.163a1.814,1.814,0,0,0-.448-0.081,0.7,0.7,0,0,0-.488.244,22.069,22.069,0,0,1-5.615,3.743,44.927,44.927,0,0,1-6.429,2.36,0.287,0.287,0,0,1-.326-0.325,0.771,0.771,0,0,1,.326-0.651,0.659,0.659,0,0,0,.325-0.489V188.9q-1.14-.487-2.156-0.976a6.967,6.967,0,0,1-1.913-1.384,19.744,19.744,0,0,1-.691-3.255,26.617,26.617,0,0,1-.2-3.337,50.092,50.092,0,0,1,.488-6.917q0.489-3.5.651-6.917a5.926,5.926,0,0,0,.814-1.546,5.023,5.023,0,0,0,.326-1.709,2.5,2.5,0,0,0-.814-1.953,2.543,2.543,0,0,0,.814-1.547,10.608,10.608,0,0,0,.162-1.709,9.6,9.6,0,0,0-.2-1.953,8.8,8.8,0,0,1-.2-1.79q0-.568.244-0.611a4.276,4.276,0,0,1,.651-0.04,0.7,0.7,0,0,0-.651-0.651,0.637,0.637,0,0,1-.57-0.733v-0.325a18.318,18.318,0,0,1,3.3-1.424,11.1,11.1,0,0,1,3.377-.529h0.977a2.4,2.4,0,0,1,.895.162,1.409,1.409,0,0,0,.651-0.366,1.089,1.089,0,0,1,.814-0.2q0.732-.081,1.424-0.122t1.343-.041q0.649,0,1.831.081t2.4,0.163q1.221,0.083,2.32.244t1.75,0.244a2.647,2.647,0,0,1,1.3.733,1.789,1.789,0,0,0,1.3.57,1.38,1.38,0,0,0,.569-0.082,3.546,3.546,0,0,0,2.076,2.157,27.335,27.335,0,0,0,2.97,1.017,15.978,15.978,0,0,1,2.034,3.662q0.813,2.036,1.709,3.906A7.143,7.143,0,0,1,412.528,163.676Z"/>
</svg>
